<?xml version="1.0" encoding="iso-8859-1"?>
<!-- Generator: Adobe Illustrator 19.0.0, SVG Export Plug-In . SVG Version: 6.00 Build 0)  -->
<svg version="1.1" id="Capa_1" xmlns="http://www.w3.org/2000/svg" xmlns:xlink="http://www.w3.org/1999/xlink" x="0px" y="0px"
	 viewBox="0 0 512 512" style="enable-background:new 0 0 512 512;" xml:space="preserve">
<rect x="0.04" y="258.247" style="fill:#269BD8;" width="511.921" height="253.754"/>
<polygon style="fill:#90D1F3;" points="256,423.729 423.698,315.308 423.698,44.202 88.302,44.202 88.302,313.022 "/>
<path style="fill:#FCBF29;" d="M291.305,158.943v-27.176c33.769-19.497,45.34-62.684,25.843-96.453
	c-19.497-33.769-62.684-45.34-96.453-25.843s-45.34,62.684-25.843,96.453c6.196,10.733,15.11,19.647,25.843,25.843v27.176H291.305z"
	/>
<rect x="220.66" y="158.952" style="fill:#FFFFFF;" width="70.61" height="35.305"/>
<path style="opacity:0.5;fill:#F28D01;enable-background:new    ;" d="M282.479,114.812c-38.959,0.035-70.574-31.527-70.61-70.486
	c-0.009-12.268,3.177-24.334,9.259-34.996c-33.875,19.206-45.773,62.234-26.567,96.118c6.205,10.953,15.234,20.036,26.134,26.32
	v27.176h70.61v-27.176c10.812-6.284,19.78-15.313,25.993-26.179C306.689,111.634,294.694,114.812,282.479,114.812z"/>
<g>
	<polygon style="fill:#0D529E;" points="423.698,315.308 511.961,258.238 423.672,199.561 	"/>
	<polygon style="fill:#0D529E;" points="88.302,313.022 0.269,258.238 88.558,199.561 	"/>
</g>
<g>
	<rect x="247.139" y="97.168" style="fill:#FFFFFF;" width="17.652" height="61.784"/>
	<path style="fill:#FFFFFF;" d="M256,105.986c-2.339,0-4.59-0.927-6.24-2.586l-26.479-26.479l12.48-12.48L256,84.679l20.239-20.239
		l12.48,12.48L262.24,103.4C260.59,105.05,258.339,105.977,256,105.986z"/>
</g>
<g>
	<rect x="194.181" y="150.126" style="fill:#591E00;" width="123.567" height="17.652"/>
	<rect x="167.703" y="229.561" style="fill:#591E00;" width="211.829" height="17.652"/>
	<rect x="132.398" y="264.866" style="fill:#591E00;" width="247.134" height="17.652"/>
	<rect x="132.398" y="300.171" style="fill:#591E00;" width="247.134" height="17.652"/>
	<rect x="132.398" y="229.561" style="fill:#591E00;" width="17.652" height="17.652"/>
	<rect x="379.532" y="70.69" style="fill:#591E00;" width="17.652" height="17.652"/>
	<rect x="379.532" y="105.994" style="fill:#591E00;" width="17.652" height="17.652"/>
</g>
<g>
</g>
<g>
</g>
<g>
</g>
<g>
</g>
<g>
</g>
<g>
</g>
<g>
</g>
<g>
</g>
<g>
</g>
<g>
</g>
<g>
</g>
<g>
</g>
<g>
</g>
<g>
</g>
<g>
</g>
</svg>
