<svg id="Capa_1" enable-background="new 0 0 512 512" height="512" viewBox="0 0 512 512" width="512" xmlns="http://www.w3.org/2000/svg"><g><path d="m256 150h-256l256 256z" fill="#ae93a7"/><path d="m512 150h-256v256z" fill="#997c94"/><path d="m256 0-181 436h362v-436z" fill="#cf2731"/><path d="m75 0h181v436h-181z" fill="#ff2225"/><path d="m349.748 184.543 13.62-26.73-26.731-13.62 13.62-26.73-26.731-13.619-17.608 34.559-34.918 11.345v-36.715l27.426-27.426-21.213-21.213-21.213 21.213-10 55.153 10 55.154 21.58 29.702-6.067 38.31 29.631 4.693 4.692-29.631 29.631 4.693 4.693-29.631-38.309-6.067-21.58-29.703 34.917-11.346z" fill="#f2edf1"/><path d="m234.787 64.394-21.213 21.213 27.426 27.426v36.715l-34.918-11.345-17.608-34.559-26.731 13.619 13.62 26.73-26.731 13.62 13.62 26.73 34.56-17.609 34.917 11.346-21.58 29.703-38.309 6.067 4.693 29.631 29.631-4.693 4.692 29.631 29.631-4.693-6.067-38.31 21.58-29.702v-110.307z" fill="#fff"/><path d="m256 406-45 53 45 53h256l-30-181h-151z" fill="#d0c0cc"/><path d="m331 331 181 181v-362z" fill="#e1d7df"/><path d="m181 331h-151l-30 181h256v-106z" fill="#e1d7df"/><path d="m0 150v362l181-181z" fill="#f2edf1"/></g></svg>