<?xml version="1.0" encoding="iso-8859-1"?>
<!-- Generator: Adobe Illustrator 19.0.0, SVG Export Plug-In . SVG Version: 6.00 Build 0)  -->
<svg version="1.1" id="Capa_1" xmlns="http://www.w3.org/2000/svg" xmlns:xlink="http://www.w3.org/1999/xlink" x="0px" y="0px"
	 viewBox="0 0 512 512" style="enable-background:new 0 0 512 512;" xml:space="preserve">
<path style="fill:#4A994A;" d="M451.244,512H60.756c-32.207,0-58.314-26.108-58.314-58.314V210.528
	c0-32.803,16.245-63.477,43.379-81.909L217.958,11.684c22.929-15.576,53.043-15.579,75.975-0.008l172.23,116.945
	c27.144,18.431,43.396,49.111,43.396,81.92v243.144C509.559,485.892,483.451,512,451.244,512z"/>
<path style="fill:#FF5555;" d="M445.427,429.91H66.573V135.371c0-30.824,24.988-55.811,55.811-55.811h267.23
	c30.824,0,55.811,24.988,55.811,55.811V429.91H445.427z"/>
<path style="fill:#E04141;" d="M445.427,429.91V158.088c0,0-100.337,82.784-190.847,82.784S66.572,157.767,66.572,158.088V429.91
	H445.427z"/>
<path style="fill:#FFFFFF;" d="M317.329,210.276l-6.536-3.774l3.193-0.896c4.108-1.153,6.504-5.419,5.351-9.526
	c-1.153-4.108-5.424-6.505-9.526-5.351l-17.722,4.974L269.55,182.69l18.056-10.424l23.518,4.433c4.535,0.777,8.325-2.452,9.024-6.16
	c0.791-4.193-1.968-8.233-6.16-9.024l-5.848-1.102l9.19-5.306c3.695-2.133,4.961-6.859,2.828-10.554
	c-2.132-3.696-6.86-4.96-10.554-2.828l-7.823,4.516l1.086-3.391c1.3-4.064-0.94-8.413-5.004-9.715
	c-4.063-1.297-8.413,0.941-9.715,5.004l-6.27,19.593l-20.052,11.577v-20.815l14.716-16.656c2.826-3.198,2.524-8.081-0.674-10.905
	c-3.198-2.827-8.083-2.525-10.905,0.674l-3.137,3.55v-6.624c0-4.268-3.458-7.726-7.726-7.726c-4.268,0-7.726,3.458-7.726,7.726
	v6.625l-3.138-3.551c-2.827-3.199-7.709-3.501-10.906-0.674c-3.198,2.825-3.5,7.708-0.674,10.905l14.717,16.656v20.815
	l-19.798-11.43l-6.229-20.004c-1.269-4.074-5.599-6.346-9.674-5.081c-4.074,1.268-6.349,5.601-5.081,9.674l1.252,4.018l-4.443-2.565
	c-3.697-2.133-8.423-0.868-10.554,2.828c-2.133,3.695-0.867,8.421,2.828,10.554l4.857,2.804l-5.205,0.94
	c-4.199,0.757-6.989,4.777-6.232,8.976c0.674,3.735,3.308,6.933,8.976,6.232l23.183-4.183l18.395,10.62l-22.241,12.841
	l-18.125-5.251c-4.099-1.185-8.384,1.172-9.571,5.271c-1.187,4.099,1.173,8.385,5.271,9.571l3.869,1.121l-3.177,1.834
	c-3.695,2.133-4.961,6.859-2.828,10.554c1.431,2.479,5.54,5.425,10.554,2.828l3.042-1.756l-2.173,5.061
	c-1.683,3.922,0.131,8.465,4.053,10.147c0.994,0.426,7.369,2.156,10.147-4.053l10.327-24.062l18.577-10.725v25.209l-14.717,16.656
	c-2.826,3.198-2.524,8.081,0.674,10.905c3.197,2.826,8.079,2.523,10.906-0.674l3.138-3.551v6.625c0,4.268,3.458,7.726,7.726,7.726
	s7.726-3.458,7.726-7.726v-6.624l3.137,3.55c1.527,1.729,3.655,2.61,5.793,2.61c1.818,0,3.644-0.638,5.113-1.937
	c3.198-2.825,3.5-7.708,0.674-10.905l-14.716-16.656v-25.209l18.146,10.476l10.312,24.597c3.128,6.183,9.138,4.546,10.113,4.138
	c3.934-1.651,5.788-6.178,4.138-10.113l-2.456-5.858l7.525,4.345c4.755,2.481,9.123-0.349,10.554-2.828
	C322.291,217.136,321.024,212.41,317.329,210.276z"/>
<path style="fill:#67B758;" d="M17.48,158.087c-9.683,15.508-15.039,33.622-15.039,52.441v243.158
	C2.442,485.892,28.549,512,60.756,512h390.488c32.207,0,58.314-26.108,58.314-58.314V210.541c0-18.826-5.359-36.943-15.047-52.455
	L256,350.483L17.48,158.087z"/>
<path style="fill:#5AAA4F;" d="M342.674,280.567L256,350.483l-86.675-69.914L2.442,433.801v19.885
	C2.442,485.892,28.549,512,60.756,512h390.488c32.207,0,58.314-26.108,58.314-58.314v-19.885L342.674,280.567z"/>
<path style="fill:#7EC66A;" d="M16.14,491.152L16.14,491.152C26.837,503.894,42.876,512,60.815,512h390.488
	c17.841,0,33.799-8.02,44.497-20.641l0.062-0.207L286.965,299.344c-17.512-16.08-44.418-16.08-61.93,0L16.14,491.152z"/>
<path style="fill:#67B758;" d="M378.243,435.602l-77.383-71.054c-3.144-2.887-3.352-7.774-0.466-10.917
	c2.886-3.145,7.774-3.35,10.917-0.466l77.383,71.054c3.144,2.887,3.352,7.774,0.466,10.917
	C387.637,436.796,382.904,439.435,378.243,435.602z"/>
<g>
</g>
<g>
</g>
<g>
</g>
<g>
</g>
<g>
</g>
<g>
</g>
<g>
</g>
<g>
</g>
<g>
</g>
<g>
</g>
<g>
</g>
<g>
</g>
<g>
</g>
<g>
</g>
<g>
</g>
</svg>
