<svg id="Capa_1" enable-background="new 0 0 512 512" height="512" viewBox="0 0 512 512" width="512" xmlns="http://www.w3.org/2000/svg"><g id="XMLID_1318_"><g id="XMLID_2399_"><g id="XMLID_1717_"><path id="XMLID_1733_" d="m502 502h-492v-289.993l126.73-126.497h238.539l126.731 126.497z" fill="#ff7d97"/><path id="XMLID_1732_" d="m256 459.235 244.833-244.833c-1.122-3.422-3.021-6.575-5.618-9.167l-119.945-119.725c-93.12 0-145.419 0-238.539 0l-119.947 119.726c-2.597 2.592-4.496 5.744-5.618 9.167z" fill="#ffcd69"/><path id="XMLID_1850_" d="m190.744 323.54-178.589 178.46h487.714l-178.616-178.463c-50.956.001-79.553.001-130.509.003z" fill="#ff9eb1"/><g id="XMLID_1727_"><path id="XMLID_1763_" d="m80.668 10v258.58l82.331 82.677 27.745-27.717c50.956-.001 79.553-.002 130.509-.003l27.75 27.721 82.329-82.677v-258.581z" fill="#fff"/></g></g></g><circle id="XMLID_1255_" cx="255.999" cy="160.063" fill="#ff7d97" r="22.397"/><g id="XMLID_1418_"><path id="XMLID_1755_" d="m502.268 198.145-60.936-60.636v-127.509c0-5.523-4.478-10-10-10h-350.664c-5.522 0-10 4.477-10 10v127.322l-67.732 67.608c-1.88 1.876-2.936 4.422-2.936 7.077v289.993c0 5.523 4.478 10 10 10h201c5.522 0 10-4.477 10-10s-4.478-10-10-10h-174.884l158.765-158.46h122.238l158.765 158.46h-174.884c-5.522 0-10 4.477-10 10s4.478 10 10 10h201c5.522 0 10-4.477 10-10v-280.407c0-8.857-3.452-17.179-9.732-23.448zm-10.268 281.683-121.956-121.722 121.956-121.957zm-4.149-267.814-46.519 46.519v-92.785zm-467.851 24.135 121.956 121.956-121.956 121.723zm50.668 22.383-46.519-46.519 46.519-46.433zm250.588 55.008h-130.512c-2.648 0-5.189 1.051-7.064 2.922l-27.568 27.515-65.444-65.444v-258.533h330.664v257.846c0 .221.019.437.033.654l-65.477 65.477-27.568-27.515c-1.875-1.872-4.416-2.922-7.064-2.922z"/><path id="XMLID_1989_" d="m256 106.325c5.522 0 10-4.477 10-10v-35.222c0-5.523-4.478-10-10-10s-10 4.477-10 10v35.222c0 5.523 4.478 10 10 10z"/><path id="XMLID_2067_" d="m256 227.214c-5.522 0-10 4.477-10 10v35.222c0 5.523 4.478 10 10 10s10-4.477 10-10v-35.222c0-5.523-4.478-10-10-10z"/><path id="XMLID_2068_" d="m326.444 156.77c-5.522 0-10 4.477-10 10s4.478 10 10 10h35.223c5.522 0 10-4.477 10-10s-4.478-10-10-10z"/><path id="XMLID_2370_" d="m185.556 176.77c5.522 0 10-4.477 10-10s-4.478-10-10-10h-35.223c-5.522 0-10 4.477-10 10s4.478 10 10 10z"/><path id="XMLID_2406_" d="m301.042 131.728c2.559 0 5.118-.977 7.071-2.929l22.521-22.521c3.905-3.905 3.905-10.237 0-14.142-3.904-3.905-10.234-3.905-14.143 0l-22.521 22.521c-3.905 3.905-3.905 10.237 0 14.142 1.954 1.952 4.512 2.929 7.072 2.929z"/><path id="XMLID_2407_" d="m203.887 204.741-22.521 22.521c-3.905 3.905-3.905 10.237 0 14.142 1.953 1.953 4.512 2.929 7.071 2.929s5.118-.977 7.071-2.929l22.521-22.521c3.905-3.905 3.905-10.237 0-14.142s-10.235-3.905-14.142 0z"/><path id="XMLID_2412_" d="m308.113 204.741c-3.906-3.905-10.236-3.905-14.143 0-3.905 3.905-3.905 10.237 0 14.143l22.521 22.521c1.953 1.953 4.512 2.929 7.071 2.929s5.118-.976 7.071-2.929c3.905-3.905 3.905-10.237 0-14.143z"/><path id="XMLID_2413_" d="m195.508 92.135c-3.906-3.905-10.236-3.905-14.143 0-3.905 3.905-3.905 10.237 0 14.142l22.521 22.521c1.953 1.953 4.512 2.929 7.071 2.929s5.118-.977 7.071-2.929c3.905-3.905 3.905-10.237 0-14.142z"/><path id="XMLID_2414_" d="m159.45 80.22c2.63 0 5.21-1.07 7.069-2.93 1.87-1.86 2.931-4.44 2.931-7.07s-1.061-5.21-2.931-7.07c-1.859-1.86-4.439-2.93-7.069-2.93-2.631 0-5.21 1.07-7.07 2.93s-2.93 4.44-2.93 7.07 1.069 5.21 2.93 7.07c1.86 1.86 4.439 2.93 7.07 2.93z"/><path id="XMLID_2549_" d="m352.55 80.22c2.63 0 5.2-1.07 7.07-2.93 1.859-1.86 2.93-4.44 2.93-7.07s-1.07-5.21-2.93-7.07-4.44-2.93-7.07-2.93-5.21 1.07-7.07 2.93c-1.859 1.86-2.93 4.44-2.93 7.07s1.07 5.21 2.93 7.07 4.44 2.93 7.07 2.93z"/><path id="XMLID_2573_" d="m159.45 253.32c-2.631 0-5.21 1.06-7.07 2.93-1.86 1.86-2.93 4.44-2.93 7.07s1.069 5.21 2.93 7.07c1.86 1.86 4.439 2.93 7.07 2.93 2.63 0 5.21-1.07 7.069-2.93 1.87-1.86 2.931-4.44 2.931-7.07s-1.061-5.21-2.931-7.07c-1.859-1.87-4.439-2.93-7.069-2.93z"/><path id="XMLID_2574_" d="m359.62 270.39c1.859-1.86 2.93-4.44 2.93-7.07s-1.07-5.21-2.93-7.07c-1.87-1.87-4.44-2.93-7.07-2.93s-5.21 1.06-7.07 2.93c-1.859 1.86-2.93 4.44-2.93 7.07s1.07 5.21 2.93 7.07 4.44 2.93 7.07 2.93 5.2-1.07 7.07-2.93z"/><path id="XMLID_2577_" d="m255.999 127.667c-17.863 0-32.396 14.533-32.396 32.397s14.533 32.397 32.396 32.397c17.864 0 32.397-14.533 32.397-32.397s-14.533-32.397-32.397-32.397zm0 44.793c-6.835 0-12.396-5.561-12.396-12.397s5.562-12.397 12.396-12.397c6.836 0 12.397 5.561 12.397 12.397s-5.561 12.397-12.397 12.397z"/><path id="XMLID_2578_" d="m256 492c-2.63 0-5.21 1.07-7.07 2.93s-2.93 4.44-2.93 7.07 1.069 5.21 2.93 7.07 4.44 2.93 7.07 2.93 5.21-1.07 7.069-2.93c1.86-1.86 2.931-4.44 2.931-7.07s-1.07-5.21-2.931-7.07c-1.859-1.86-4.439-2.93-7.069-2.93z"/></g></g></svg>