<svg id="Capa_1" enable-background="new 0 0 512 512" height="512" viewBox="0 0 512 512" width="512" xmlns="http://www.w3.org/2000/svg"><g><g><path d="m512 512h-512v-324.431l89.381-28.87h333.238l89.381 28.87z" fill="#fed843"/><g><path d="m512 187.569-89.381-28.87h-166.619v353.301h256z" fill="#fbcb56"/></g><path d="m73.894 249.683-73.894-62.114 256-181.038 256 181.038z" fill="#fbcb56"/><g><path d="m256 6.531 182.083 243.136 73.917-62.098z" fill="#fabe2c"/></g><path d="m259.667 512h-259.667l256-176.343z" fill="#fee47b"/><g><path d="m256 335.657v176.343h256z" fill="#fed843"/></g><g><path d="m256 407-182.083-157.333v-249.667h354.166z" fill="#e7ffff"/><g><path d="m256 0v407l182.084-157.333v-249.667z" fill="#daf2fe"/></g></g></g><g><g><g><path d="m256 130.333c-12.893 0-23.381-10.489-23.381-23.381 0-2.257 0-8.254 10.037-27.803l13.344-25.991 13.344 25.991c10.037 19.549 10.037 25.546 10.037 27.803 0 12.892-10.488 23.381-23.381 23.381z" fill="#fed843"/></g></g></g><path d="m279.381 106.952c0-2.257 0-8.254-10.037-27.803l-13.344-25.991v77.175c12.893 0 23.381-10.489 23.381-23.381z" fill="#fabe2c"/><g><g><g><g><path d="m279 275.5h-46v-128.248h46z" fill="#fc445f"/></g></g></g></g><g><path d="m256 147.252h23v128.248h-23z" fill="#ce0c52"/></g><g><path d="m329.209 343.75 34.993-30.233c-4.121-32.627-32.026-57.948-65.753-57.948h-84.898c-33.723 0-61.626 25.316-65.752 57.938l35.001 30.243z" fill="#00d7df"/></g><g><path d="m364.203 313.517c-4.121-32.627-32.026-57.948-65.753-57.948h-42.45v88.182h73.209z" fill="#00b2cc"/></g><g><path d="m255.663 333.68c-29.943 0-29.943 10-59.886 10-5.642 0-10.219-.356-14.136-.932l74.359 64.252 74.519-64.383c-4.1.651-8.918 1.062-14.968 1.062-29.944.001-29.944-9.999-59.888-9.999z" fill="#2d5177"/></g><g><path d="m330.52 342.618c-4.1.651-8.918 1.062-14.968 1.062-29.828 0-29.953-9.92-59.552-9.996v73.316z" fill="#32405d"/></g></g></svg>