<svg id="Capa_1" enable-background="new 0 0 502 502" height="512" viewBox="0 0 502 502" width="512" xmlns="http://www.w3.org/2000/svg" xmlns:xlink="http://www.w3.org/1999/xlink"><linearGradient id="SVGID_1_" gradientUnits="userSpaceOnUse" x1="251" x2="251" y1="505.04" y2="389.478"><stop offset="0" stop-color="#9fd8e6"/><stop offset="1" stop-color="#c4e8f0"/></linearGradient><linearGradient id="SVGID_2_" gradientUnits="userSpaceOnUse" x1="251" x2="251" y1="366.015" y2="177.882"><stop offset="0" stop-color="#6dc8dd"/><stop offset="1" stop-color="#9fd8e6"/></linearGradient><linearGradient id="SVGID_3_" gradientUnits="userSpaceOnUse" x1="251" x2="251" y1="384.275" y2="210.38"><stop offset="0" stop-color="#f9edaf"/><stop offset="1" stop-color="#fffcdd"/></linearGradient><g><path d="m297.149 19.696c-25.162-26.262-67.137-26.262-92.299 0l-151.364 157.979c-19.267 20.109-30.023 46.882-30.023 74.732v163.675c0 47.452 38.467 85.919 85.919 85.919h283.236c47.452 0 85.919-38.467 85.919-85.919v-163.675c0-27.849-10.756-54.623-30.023-74.732z" fill="url(#SVGID_1_)"/><path d="m85.236 453.19c-3.033 0-6.061-1.192-8.32-3.559-4.386-4.594-4.217-11.874.377-16.259l165.766-158.259c4.595-4.387 11.874-4.217 16.26.377s4.217 11.873-.377 16.259l-165.766 158.259c-2.228 2.126-5.086 3.182-7.94 3.182z" fill="#71c4d1"/><path d="m416.764 453.19c-2.854 0-5.712-1.056-7.94-3.182l-165.765-158.26c-4.594-4.386-4.763-11.665-.377-16.259 4.386-4.593 11.664-4.763 16.26-.377l165.766 158.259c4.594 4.386 4.763 11.665.377 16.259-2.261 2.368-5.289 3.56-8.321 3.56z" fill="#71c4d1"/><path d="m30.051 215.338 185.276 177.974c19.929 19.144 51.416 19.144 71.345 0l185.276-177.974c-5.085-13.915-12.999-26.771-23.435-37.663l-151.364-157.979c-25.162-26.262-67.137-26.262-92.299 0l-151.364 157.979c-10.436 10.892-18.35 23.749-23.435 37.663z" fill="url(#SVGID_2_)"/><path d="m443.285 215.387c-7.359-7.026-18.946-7.008-26.283.04l-156.654 150.48c-3.408 3.274-7.32 3.763-9.349 3.763-2.028 0-5.94-.489-9.349-3.763l-156.653-150.48c-7.337-7.048-18.924-7.066-26.283-.04-7.823 7.469-7.842 19.952-.042 27.445l156.655 150.481c19.929 19.144 51.416 19.144 71.345 0l156.655-150.481c7.801-7.493 7.781-19.977-.042-27.445z" fill="#71c4d1"/><path d="m399.337 261.347c0-31.172-25.27-56.443-56.443-56.443h-183.789c-31.172 0-56.443 25.27-56.443 56.443v23.741l112.665 108.224c19.929 19.144 51.416 19.144 71.345 0l112.665-108.224z" fill="url(#SVGID_3_)"/><g><ellipse cx="163.114" cy="161.065" fill="#eaadcd" rx="14.936" ry="12.003"/><ellipse cx="338.885" cy="161.065" fill="#eaadcd" rx="14.936" ry="12.003"/><path d="m188.721 135.413c7.183 0 13.813 1.589 19.159 4.273 4.544 2.281 9.962-.801 10.365-5.87.113-1.423.125-2.875.029-4.348-.991-15.146-13.602-27.24-28.775-27.629-16.713-.428-30.396 12.992-30.396 29.608 0 .843.036 1.678.105 2.503.422 5.01 5.857 7.994 10.349 5.738 5.348-2.685 11.979-4.275 19.164-4.275z" fill="#fff"/><path d="m251 171.251c-6.447 0-12.894-2.155-18.274-6.465-4.989-3.997-5.794-11.282-1.797-16.271 3.997-4.99 11.282-5.793 16.271-1.797 2.237 1.792 5.361 1.792 7.598 0 4.988-3.997 12.273-3.193 16.271 1.797 3.997 4.989 3.193 12.274-1.797 16.271-5.378 4.31-11.825 6.465-18.272 6.465z" fill="#3b3b44"/><path d="m188.721 135.413c5.926 0 11.474 1.082 16.237 2.967.911-2.129 1.415-4.47 1.415-6.933 0-9.749-7.903-17.652-17.652-17.652s-17.652 7.903-17.652 17.652c0 2.463.504 4.803 1.415 6.933 4.764-1.885 10.312-2.967 16.237-2.967z" fill="#3b3b44"/><path d="m313.279 135.413c7.183 0 13.813 1.589 19.159 4.273 4.544 2.281 9.962-.801 10.365-5.87.113-1.423.126-2.875.029-4.348-.991-15.146-13.602-27.24-28.775-27.629-16.713-.428-30.396 12.992-30.396 29.608 0 .843.035 1.678.105 2.503.422 5.01 5.857 7.994 10.349 5.738 5.347-2.685 11.979-4.275 19.164-4.275z" fill="#fff"/><path d="m313.279 135.413c5.926 0 11.474 1.082 16.237 2.967.911-2.129 1.415-4.47 1.415-6.933 0-9.749-7.903-17.652-17.652-17.652s-17.652 7.903-17.652 17.652c0 2.463.504 4.803 1.415 6.933 4.763-1.885 10.311-2.967 16.237-2.967z" fill="#3b3b44"/></g><g fill="#f5c98d"><path d="m325.945 277.378h-149.89c-6.352 0-11.5-5.149-11.5-11.5s5.148-11.5 11.5-11.5h149.891c6.352 0 11.5 5.149 11.5 11.5-.001 6.351-5.149 11.5-11.501 11.5z"/><path d="m309.223 334.217h-116.446c-6.352 0-11.5-5.149-11.5-11.5s5.148-11.5 11.5-11.5h116.445c6.352 0 11.5 5.149 11.5 11.5s-5.148 11.5-11.499 11.5z"/></g></g></svg>